<svg xmlns="http://www.w3.org/2000/svg" xmlns:xlink="http://www.w3.org/1999/xlink" viewBox="0 0 420 80" width="420" height="80" role="img" aria-label="Live demo · CRASH: crash-chennai.vercel.app"><title>Live demo · CRASH: crash-chennai.vercel.app</title><defs><path id="g0" d="m86 0v686h95v-603h341v-83z"/><path id="g1" d="m69 625v98h88v-98zm0-625v526h88v-526z"/><path id="g2" d="m208 0l-195 526h92l96-263q7-19 16-47q9-29 19-58q9-30 15-53h5q7 22 16 51q9 30 18 58q10 29 17 49l95 263h89l-195-526z"/><path id="g3" d="m279-12q-78 0-131 30q-54 29-82 90q-27 61-27 155q0 95 27 155q28 61 82 90q54 30 135 30q74 0 124-28q50-29 75-86q26-56 26-141v-42h-378q2-63 18-103q17-41 50-60q33-18 83-18q34 0 59 8q26 9 44 25q17 16 26 38q9 22 10 48h86q-1-42-16-77q-15-36-44-61q-29-25-71-39q-42-14-96-14zm-147 319h285q0 44-10 74q-10 30-29 49q-18 19-42 28q-25 8-56 8q-46 0-78-17q-32-17-49-52q-17-35-21-90z"/><path id="g4" d=""/><path id="g5" d="m248-12q-65 0-112 29q-46 29-72 91q-25 61-25 159q0 93 26 153q26 60 72 89q46 29 107 29q35 0 65-8q30-8 53-25q24-17 42-45h6v263h88v-723h-71l-8 75h-7q-27-44-70-65q-43-22-94-22zm21 77q50 0 81 22q31 22 46 64q14 42 14 104v16q0 54-11 91q-11 37-30 59q-19 22-44 31q-25 9-53 9q-49 0-80-19q-31-20-46-62q-15-41-15-107v-21q0-68 16-110q16-41 47-59q30-18 75-18z"/><path id="g6" d="m69 0v526h71l8-79h7q20 32 45 52q25 20 55 29q30 10 65 10q51 0 88-20q37-21 55-71h6q19 32 44 51q25 20 56 30q31 10 66 10q48 0 84-16q36-17 57-54q20-38 20-101v-367h-88v353q0 32-8 53q-7 21-21 32q-14 12-33 17q-18 5-39 5q-35 0-65-18q-29-18-47-52q-18-34-18-81v-309h-88v353q0 32-8 53q-8 21-21 32q-13 12-32 17q-18 5-38 5q-36 0-66-18q-31-18-49-52q-18-34-18-81v-309z"/><path id="g7" d="m285-12q-80 0-135 30q-54 29-82 90q-29 61-29 155q0 95 29 155q28 61 82 90q55 30 135 30q80 0 135-30q54-29 82-90q28-60 28-155q0-94-28-155q-28-61-82-90q-55-30-135-30zm0 74q51 0 85 20q34 20 52 62q17 43 17 108v22q0 66-17 108q-18 42-52 62q-34 20-85 20q-51 0-85-20q-35-20-52-62q-17-42-17-108v-22q0-65 17-108q17-42 52-62q34-20 85-20z"/><path id="g8" d="m117 303v107h100v-107z"/><path id="g9" d="m379-12q-105 0-178 38q-73 39-111 118q-39 78-39 199q0 179 87 267q87 88 242 88q88 0 156-28q68-29 106-86q39-58 39-145h-96q0 60-25 99q-26 39-72 58q-46 20-108 20q-72 0-124-28q-52-28-79-86q-27-59-27-151v-21q0-91 27-148q27-58 79-85q51-27 124-27q64 0 110 19q47 19 72 59q26 39 26 99h93q0-89-39-146q-40-57-108-85q-68-28-155-28z"/><path id="ga" d="m86 0v686h361q70 0 117-26q46-25 69-70q23-46 23-105q0-71-32-122q-32-51-88-73l144-290h-104l-134 273h-261v-273zm95 354h257q57 0 90 35q32 35 32 96q0 38-14 64q-14 26-41 41q-27 14-67 14h-257z"/><path id="gb" d="m7 0l271 686h125l272-686h-103l-67 170h-334l-66-170zm195 251h271l-83 215q-3 9-9 25q-6 16-13 35q-7 20-14 40q-7 21-13 38h-6q-7-20-16-46q-9-26-18-50q-9-25-15-42z"/><path id="gc" d="m338-12q-56 0-108 11q-51 11-91 35q-40 25-63 64q-24 39-24 96q0 5 0 10q1 5 1 10h96q0-3-1-10q0-6 0-11q0-40 24-68q24-28 66-41q43-14 97-14q24 0 51 3q26 3 50 11q25 7 44 20q20 12 32 30q11 19 11 46q0 34-19 56q-20 23-52 38q-32 14-72 26q-41 11-84 22q-43 11-84 26q-40 14-72 36q-32 21-52 53q-19 32-19 78q0 43 17 77q18 34 52 58q35 23 86 36q51 12 117 12q54 0 101-12q46-11 82-34q35-24 55-60q20-36 20-87v-12h-94v15q0 34-21 58q-21 24-58 37q-36 13-82 13q-60 0-100-12q-40-11-60-32q-19-22-19-49q0-31 19-52q20-21 52-35q32-13 73-24q41-11 83-22q43-12 84-26q40-15 72-36q33-22 52-54q19-33 19-80q0-73-36-118q-36-46-99-67q-63-21-146-21z"/><path id="gd" d="m86 0v686h95v-294h373v294h96v-686h-96v309h-373v-309z"/><path id="ge" d="m284-12q-82 0-136 30q-55 29-82 90q-27 61-27 155q0 95 27 155q28 61 82 90q55 30 136 30q53 0 94-13q41-13 70-39q30-27 45-66q15-39 15-91h-124q0 37-11 61q-11 24-33 36q-23 13-58 13q-41 0-67-19q-26-19-39-56q-12-38-12-95v-13q0-56 12-94q13-38 40-56q27-19 71-19q34 0 57 13q22 12 34 37q12 25 12 60h118q0-49-15-88q-15-39-44-66q-29-27-71-41q-41-14-94-14z"/><path id="gf" d="m65 0v526h102l10-83h7q10 25 24 47q15 21 38 34q23 14 56 14q16 0 30-3q13-3 20-6v-115h-37q-31 0-55-8q-24-9-40-27q-17-18-25-45q-8-27-8-63v-271z"/><path id="g10" d="m200-12q-22 0-50 6q-29 5-56 20q-26 15-43 44q-17 30-17 78q0 54 24 90q24 35 68 56q43 20 104 28q60 9 132 9v43q0 23-7 41q-7 18-25 29q-19 10-56 10q-37 0-58-9q-21-9-29-22q-8-13-8-27v-14h-118q-1 5-1 10v12q0 45 27 78q27 33 75 50q48 18 111 18q72 0 119-20q46-20 69-57q23-37 23-90v-248q0-19 11-27q11-8 24-8h32v-84q-10-4-29-10q-19-5-47-5q-26 0-47 9q-20 8-34 24q-14 16-20 38h-6q-17-21-40-38q-24-16-56-25q-31-9-72-9zm37 100q30 0 53 9q24 9 40 25q15 16 24 39q8 23 8 50v24q-55 0-102-7q-46-7-74-26q-27-19-27-54q0-18 9-32q8-13 26-20q17-8 43-8z"/><path id="g11" d="m270-12q-57 0-100 12q-43 13-72 35q-29 22-44 51q-14 30-14 65q0 5 0 9q1 4 1 6h120v-8q1-27 17-44q16-16 42-23q26-7 55-7q26 0 49 6q24 5 40 18q15 12 15 32q0 26-20 40q-20 14-53 23q-32 9-69 19q-33 9-66 20q-33 11-59 28q-27 17-44 44q-16 27-16 67q0 39 17 68q17 29 47 49q30 19 71 29q41 10 89 10q47 0 86-10q38-10 66-29q29-18 44-44q16-27 16-59q0-7 0-14q-1-7-1-8h-119v7q0 19-12 32q-11 14-32 22q-22 8-54 8q-24 0-42-4q-18-4-30-11q-11-7-17-16q-6-9-6-20q0-19 15-30q15-11 40-19q26-8 56-17q36-10 74-21q38-10 70-26q33-16 53-45q20-29 20-77q0-46-17-78q-18-33-50-52q-31-20-74-29q-42-9-92-9z"/><path id="g12" d="m65 0v723h122v-257h7q17 21 40 37q23 16 52 25q30 10 66 10q50 0 88-18q39-18 61-58q22-40 22-107v-355h-123v333q0 28-6 47q-7 18-20 30q-12 11-30 16q-18 5-40 5q-33 0-60-16q-26-16-42-44q-15-28-15-65v-306z"/><path id="g13" d="m40 214v112h253v-112z"/><path id="g14" d="m291-12q-84 0-140 30q-56 29-84 90q-28 61-28 155q0 95 28 155q28 61 84 90q56 30 140 30q76 0 127-28q52-29 78-88q26-59 26-153v-36h-358q2-49 15-83q13-33 41-50q27-16 72-16q23 0 43 6q20 6 35 18q15 13 24 32q8 19 8 44h120q0-50-18-87q-17-37-48-61q-32-24-74-36q-42-12-91-12zm-125 331h229q0 33-7 56q-8 23-22 38q-13 15-32 21q-19 7-43 7q-39 0-65-13q-27-13-41-40q-14-27-19-69z"/><path id="g15" d="m65 0v526h102l10-70h7q18 24 42 42q25 19 56 30q32 10 70 10q50 0 88-18q39-18 61-58q22-40 22-107v-355h-123v333q0 28-6 47q-7 18-20 30q-12 11-30 16q-18 5-40 5q-33 0-60-16q-26-16-42-44q-15-28-15-65v-306z"/><path id="g16" d="m65 607v116h122v-116zm0-607v526h122v-526z"/><path id="g17" d="m86 0v128h127v-128z"/><path id="g18" d="m200 0l-195 526h128l85-237q6-17 14-45q9-29 18-60q9-30 15-55h5q6 23 14 53q8 30 16 59q9 29 16 48l84 237h124l-196-526z"/><path id="g19" d="m65 0v723h122v-723z"/><path id="g1a" d="m65-173v699h101l10-70h7q26 41 68 62q42 20 93 20q65 0 112-29q46-29 72-90q25-61 25-157q0-94-26-155q-26-61-71-90q-46-29-105-29q-36 0-66 8q-30 8-53 24q-23 17-39 41h-6v-234zm241 266q45 0 72 17q26 18 38 54q11 36 11 91v14q0 56-11 93q-12 36-38 54q-27 17-72 17q-41 0-68-19q-26-19-38-56q-13-36-13-89v-12q0-39 7-69q7-31 22-52q14-21 36-32q23-11 54-11z"/></defs><rect width="420" height="80" fill="#ffffff"/><g transform="translate(34.0 32.0) scale(0.01400 -0.01400)" fill="#6a6a6a"><use href="#g0" x="0"/><use href="#g1" x="536"/><use href="#g2" x="761"/><use href="#g3" x="1260"/><use href="#g5" x="2017"/><use href="#g3" x="2584"/><use href="#g6" x="3132"/><use href="#g7" x="3992"/><use href="#g8" x="4771"/><use href="#g9" x="5313"/><use href="#ga" x="6041"/><use href="#gb" x="6768"/><use href="#gc" x="7450"/><use href="#gd" x="8123"/></g><g transform="translate(34.0 60.0) scale(0.02100 -0.02100)" fill="#111111"><use href="#ge" x="0"/><use href="#gf" x="547"/><use href="#g10" x="899"/><use href="#g11" x="1455"/><use href="#g12" x="1996"/><use href="#g13" x="2580"/><use href="#ge" x="2913"/><use href="#g12" x="3460"/><use href="#g14" x="4044"/><use href="#g15" x="4605"/><use href="#g15" x="5189"/><use href="#g10" x="5773"/><use href="#g16" x="6329"/><use href="#g17" x="6581"/><use href="#g18" x="6881"/><use href="#g14" x="7410"/><use href="#gf" x="7971"/><use href="#ge" x="8323"/><use href="#g14" x="8870"/><use href="#g19" x="9431"/><use href="#g17" x="9683"/><use href="#g10" x="9983"/><use href="#g1a" x="10539"/><use href="#g1a" x="11131"/></g><path d="M34 67H280.2" stroke="#e1251b" stroke-width="2"/><path d="M0.75 0V80M419.25 0V80M0 79.25H420" stroke="#111111" stroke-width="1.5" fill="none"/></svg>