<svg xmlns="http://www.w3.org/2000/svg" width="203" height="28" viewBox="0 0 203 28" role="img" aria-label="Top 5: ZRC Technoxian 2026">
<title>Top 5: ZRC Technoxian 2026</title>
<rect x=".5" y=".5" width="202" height="27" rx="8" fill="#38C0D8" fill-opacity="0.14" stroke="#38C0D8" stroke-opacity=".5"/>
<circle cx="15" cy="14" r="4" fill="#38C0D8"/>
<path d="M31.57 18.4L29.9 18.4L29.9 11.27L27.32 11.27L27.32 9.95L34.15 9.95L34.15 11.27L31.57 11.27L31.57 18.4ZM38.01 18.56L38.01 18.56Q36.43 18.56 35.65 17.64Q34.88 16.71 34.88 15.15L34.88 15.15Q34.88 13.59 35.65 12.66Q36.43 11.74 38.01 11.74L38.01 11.74Q39.59 11.74 40.37 12.66Q41.15 13.59 41.15 15.15L41.15 15.15Q41.15 16.71 40.37 17.64Q39.59 18.56 38.01 18.56ZM38.01 17.45L38.01 17.45Q38.78 17.45 39.13 16.86Q39.48 16.27 39.48 15.15L39.48 15.15Q39.48 14.02 39.13 13.44Q38.78 12.85 38.01 12.85L38.01 12.85Q37.25 12.85 36.89 13.44Q36.53 14.02 36.53 15.15L36.53 15.15Q36.53 16.27 36.89 16.86Q37.25 17.45 38.01 17.45ZM44 20.57L42.38 20.57L42.38 11.9L43.87 11.9L43.87 12.74L44.13 12.74Q44.33 12.33 44.77 12.05Q45.21 11.76 45.94 11.76L45.94 11.76Q46.81 11.76 47.39 12.19Q47.97 12.63 48.26 13.39Q48.55 14.15 48.55 15.16L48.55 15.16Q48.55 16.16 48.25 16.93Q47.96 17.7 47.38 18.12Q46.8 18.54 45.95 18.54L45.95 18.54Q45.31 18.54 44.9 18.3Q44.48 18.06 44.26 17.66L44.26 17.66L44 17.66L44 20.57ZM45.51 17.37L45.51 17.37Q46.16 17.37 46.52 16.81Q46.88 16.24 46.88 15.15L46.88 15.15Q46.88 14.06 46.52 13.49Q46.16 12.93 45.51 12.93L45.51 12.93Q44.82 12.93 44.4 13.53Q43.99 14.13 43.99 15.15L43.99 15.15Q43.99 16.16 44.4 16.76Q44.82 17.37 45.51 17.37ZM55.2 18.53L55.2 18.53Q54.38 18.53 53.81 18.3Q53.25 18.07 52.89 17.71Q52.53 17.34 52.36 16.93Q52.19 16.51 52.17 16.15L52.17 16.15L53.74 16.15Q53.77 16.4 53.94 16.65Q54.1 16.9 54.44 17.08Q54.77 17.26 55.24 17.26L55.24 17.26Q56.01 17.26 56.37 16.77Q56.74 16.28 56.74 15.53L56.74 15.53Q56.74 14.75 56.34 14.3Q55.94 13.85 55.22 13.85L55.22 13.85Q54.83 13.85 54.55 13.99Q54.28 14.13 54.11 14.32Q53.94 14.51 53.86 14.68L53.86 14.68L52.33 14.68L52.83 9.95L57.78 9.95L57.78 11.23L54.08 11.23L53.84 13.37L54.1 13.37Q54.32 13.07 54.7 12.88Q55.07 12.69 55.69 12.69L55.69 12.69Q56.51 12.69 57.1 13.04Q57.69 13.38 58.02 14.02Q58.35 14.66 58.35 15.5L58.35 15.5Q58.35 16.4 57.97 17.08Q57.58 17.76 56.88 18.15Q56.17 18.53 55.2 18.53Z" fill="#e6edf3"/>
<path d="M73.13 18.4L66.36 18.4L66.36 17.06L70.14 12.6Q70.39 12.31 70.65 12.02Q70.91 11.73 71.22 11.43L71.22 11.43L71.22 11.17L66.77 11.17L66.77 9.95L73.05 9.95L73.05 11.29L69.26 15.75Q69.02 16.04 68.76 16.33Q68.49 16.62 68.19 16.92L68.19 16.92L68.19 17.18L73.13 17.18L73.13 18.4ZM76 18.4L74.51 18.4L74.51 9.95L77.87 9.95Q78.96 9.95 79.62 10.25Q80.28 10.56 80.59 11.08Q80.9 11.61 80.9 12.27L80.9 12.27Q80.9 13.08 80.45 13.65Q80.01 14.23 79.15 14.47L79.15 14.47L81.12 18.33L81.12 18.4L79.52 18.4L77.67 14.67L76 14.67L76 18.4ZM76 11.12L76 13.55L77.71 13.55Q78.55 13.55 78.95 13.25Q79.36 12.96 79.36 12.33L79.36 12.33Q79.36 11.69 78.95 11.41Q78.55 11.12 77.71 11.12L77.71 11.12L76 11.12ZM85.53 18.56L85.53 18.56Q83.74 18.56 82.74 17.4Q81.74 16.24 81.74 14.17L81.74 14.17Q81.74 12.11 82.73 10.95Q83.72 9.79 85.52 9.79L85.52 9.79Q86.58 9.79 87.35 10.19Q88.12 10.59 88.56 11.3Q89 12.02 89.09 12.96L89.09 12.96L87.57 12.96Q87.47 12.03 86.93 11.49Q86.39 10.96 85.52 10.96L85.52 10.96Q84.44 10.96 83.87 11.8Q83.3 12.64 83.3 14.17L83.3 14.17Q83.3 15.75 83.88 16.57Q84.46 17.39 85.51 17.39L85.51 17.39Q86.42 17.39 86.95 16.83Q87.48 16.27 87.57 15.39L87.57 15.39L89.09 15.39Q89 16.32 88.56 17.04Q88.12 17.76 87.36 18.16Q86.6 18.56 85.53 18.56ZM96.52 18.4L95 18.4L95 11.17L92.35 11.17L92.35 9.95L99.17 9.95L99.17 11.17L96.52 11.17L96.52 18.4ZM102.96 18.56L102.96 18.56Q101.48 18.56 100.71 17.63Q99.93 16.7 99.93 15.14L99.93 15.14Q99.93 14.1 100.28 13.34Q100.62 12.58 101.3 12.16Q101.97 11.74 102.94 11.74L102.94 11.74Q104.34 11.74 105.08 12.61Q105.81 13.48 105.81 15.15L105.81 15.15L105.81 15.51L101.35 15.51Q101.4 16.4 101.81 16.94Q102.22 17.48 102.96 17.48L102.96 17.48Q103.53 17.48 103.87 17.15Q104.22 16.83 104.35 16.32L104.35 16.32L105.74 16.32Q105.62 16.95 105.29 17.45Q104.96 17.96 104.38 18.26Q103.81 18.56 102.96 18.56ZM101.36 14.53L101.36 14.53L104.38 14.53Q104.35 13.69 103.98 13.24Q103.6 12.79 102.93 12.79L102.93 12.79Q102.25 12.79 101.85 13.23Q101.45 13.68 101.36 14.53ZM109.61 18.56L109.61 18.56Q108.14 18.56 107.4 17.63Q106.65 16.7 106.65 15.15L106.65 15.15Q106.65 13.54 107.43 12.64Q108.21 11.74 109.62 11.74L109.62 11.74Q110.83 11.74 111.54 12.39Q112.26 13.05 112.41 14.23L112.41 14.23L110.97 14.23Q110.88 13.56 110.54 13.19Q110.2 12.83 109.64 12.83L109.64 12.83Q108.89 12.83 108.52 13.44Q108.15 14.06 108.15 15.15L108.15 15.15Q108.15 16.24 108.52 16.86Q108.89 17.47 109.63 17.47L109.63 17.47Q110.2 17.47 110.54 17.1Q110.88 16.73 110.97 16.07L110.97 16.07L112.41 16.07Q112.25 17.24 111.53 17.9Q110.81 18.56 109.61 18.56ZM115.1 18.4L113.64 18.4L113.64 9.73L115.1 9.73L115.1 12.71L115.36 12.71Q115.59 12.26 115.99 12Q116.39 11.74 117.04 11.74L117.04 11.74Q118.14 11.74 118.67 12.43Q119.19 13.11 119.19 14.25L119.19 14.25L119.19 18.4L117.73 18.4L117.73 14.52Q117.73 13.76 117.46 13.36Q117.19 12.95 116.6 12.95L116.6 12.95Q115.89 12.95 115.49 13.51Q115.1 14.07 115.1 14.89L115.1 14.89L115.1 18.4ZM122.3 18.4L120.84 18.4L120.84 11.9L122.17 11.9L122.17 12.87L122.43 12.87Q122.63 12.35 123.06 12.05Q123.48 11.74 124.23 11.74L124.23 11.74Q125.35 11.74 125.87 12.43Q126.4 13.11 126.4 14.25L126.4 14.25L126.4 18.4L124.93 18.4L124.93 14.52Q124.93 13.76 124.66 13.36Q124.39 12.95 123.81 12.95L123.81 12.95Q123.09 12.95 122.7 13.51Q122.3 14.07 122.3 14.89L122.3 14.89L122.3 18.4ZM130.68 18.56L130.68 18.56Q129.13 18.56 128.37 17.64Q127.61 16.71 127.61 15.15L127.61 15.15Q127.61 13.59 128.37 12.66Q129.13 11.74 130.68 11.74L130.68 11.74Q132.23 11.74 132.98 12.66Q133.74 13.59 133.74 15.15L133.74 15.15Q133.74 16.71 132.98 17.64Q132.23 18.56 130.68 18.56ZM130.68 17.5L130.68 17.5Q131.48 17.5 131.86 16.89Q132.24 16.28 132.24 15.15L132.24 15.15Q132.24 14.01 131.86 13.41Q131.48 12.8 130.68 12.8L130.68 12.8Q129.86 12.8 129.49 13.41Q129.12 14.01 129.12 15.15L129.12 15.15Q129.12 16.28 129.49 16.89Q129.86 17.5 130.68 17.5ZM135.66 18.4L134.15 18.4L134.15 18.33L136.19 14.98L134.39 11.96L134.39 11.9L135.94 11.9L137.13 13.99L137.36 13.99L138.52 11.9L139.97 11.9L139.97 11.96L138.23 14.94L140.25 18.33L140.25 18.4L138.65 18.4L137.25 15.94L137.03 15.94L135.66 18.4ZM142.72 18.4L141.26 18.4L141.26 11.9L142.72 11.9L142.72 18.4ZM142 11.07L142 11.07Q141.6 11.07 141.39 10.85Q141.17 10.63 141.17 10.27L141.17 10.27Q141.17 9.92 141.39 9.7Q141.6 9.47 142 9.47L142 9.47Q142.41 9.47 142.62 9.7Q142.83 9.92 142.83 10.27L142.83 10.27Q142.83 10.63 142.62 10.85Q142.41 11.07 142 11.07ZM146.66 18.54L146.66 18.54Q145.78 18.54 145.19 18.11Q144.61 17.68 144.32 16.92Q144.02 16.15 144.02 15.14L144.02 15.14Q144.02 14.12 144.32 13.36Q144.62 12.59 145.2 12.17Q145.79 11.75 146.66 11.75L146.66 11.75Q147.37 11.75 147.81 12.04Q148.25 12.32 148.44 12.74L148.44 12.74L148.7 12.74L148.7 11.9L150.04 11.9L150.04 18.4L148.7 18.4L148.7 17.55L148.44 17.55Q148.25 17.96 147.81 18.25Q147.37 18.54 146.66 18.54ZM146.98 17.44L146.98 17.44Q147.72 17.44 148.16 16.81Q148.59 16.19 148.59 15.15L148.59 15.15Q148.59 14.1 148.16 13.48Q147.72 12.85 146.98 12.85L146.98 12.85Q146.29 12.85 145.91 13.44Q145.53 14.03 145.53 15.15L145.53 15.15Q145.53 16.27 145.91 16.85Q146.29 17.44 146.98 17.44ZM153.23 18.4L151.77 18.4L151.77 11.9L153.1 11.9L153.1 12.87L153.36 12.87Q153.56 12.35 153.98 12.05Q154.41 11.74 155.16 11.74L155.16 11.74Q156.28 11.74 156.8 12.43Q157.33 13.11 157.33 14.25L157.33 14.25L157.33 18.4L155.86 18.4L155.86 14.52Q155.86 13.76 155.59 13.36Q155.32 12.95 154.74 12.95L154.74 12.95Q154.02 12.95 153.63 13.51Q153.23 14.07 153.23 14.89L153.23 14.89L153.23 18.4ZM167.35 18.4L161.43 18.4L161.43 17.14Q162.35 16.43 163 15.9Q163.64 15.37 164.11 14.92L164.11 14.92Q164.89 14.17 165.27 13.58Q165.65 12.99 165.65 12.34L165.65 12.34Q165.65 11.72 165.3 11.33Q164.95 10.95 164.27 10.95L164.27 10.95Q163.52 10.95 163.16 11.42Q162.8 11.9 162.8 12.64L162.8 12.64L161.43 12.64Q161.43 11.8 161.76 11.16Q162.09 10.51 162.74 10.16Q163.38 9.8 164.31 9.8L164.31 9.8Q165.63 9.8 166.37 10.47Q167.11 11.14 167.11 12.27L167.11 12.27Q167.11 13.2 166.61 13.99Q166.11 14.77 165.25 15.55L165.25 15.55Q164.89 15.88 164.42 16.24Q163.96 16.6 163.42 16.94L163.42 16.94L163.42 17.18L167.35 17.18L167.35 18.4ZM171.76 18.55L171.76 18.55Q170.12 18.55 169.32 17.39Q168.52 16.23 168.52 14.17L168.52 14.17Q168.52 12.12 169.32 10.96Q170.12 9.8 171.76 9.8L171.76 9.8Q173.4 9.8 174.2 10.96Q175 12.12 175 14.17L175 14.17Q175 16.23 174.2 17.39Q173.4 18.55 171.76 18.55ZM171.76 17.35L171.76 17.35Q172.66 17.35 173.07 16.55Q173.48 15.76 173.48 14.17L173.48 14.17Q173.48 12.58 173.07 11.79Q172.66 11 171.76 11L171.76 11Q170.87 11 170.45 11.79Q170.03 12.58 170.03 14.17L170.03 14.17Q170.03 15.76 170.45 16.55Q170.87 17.35 171.76 17.35ZM182.08 18.4L176.17 18.4L176.17 17.14Q177.09 16.43 177.73 15.9Q178.38 15.37 178.84 14.92L178.84 14.92Q179.62 14.17 180 13.58Q180.38 12.99 180.38 12.34L180.38 12.34Q180.38 11.72 180.03 11.33Q179.69 10.95 179 10.95L179 10.95Q178.26 10.95 177.89 11.42Q177.53 11.9 177.53 12.64L177.53 12.64L176.17 12.64Q176.17 11.8 176.5 11.16Q176.83 10.51 177.47 10.16Q178.12 9.8 179.05 9.8L179.05 9.8Q180.36 9.8 181.1 10.47Q181.84 11.14 181.84 12.27L181.84 12.27Q181.84 13.2 181.34 13.99Q180.85 14.77 179.98 15.55L179.98 15.55Q179.62 15.88 179.16 16.24Q178.69 16.6 178.15 16.94L178.15 16.94L178.15 17.18L182.08 17.18L182.08 18.4ZM186.54 18.55L186.54 18.55Q185.58 18.55 184.89 18.16Q184.2 17.76 183.84 17.08Q183.47 16.41 183.47 15.55L183.47 15.55Q183.47 14.85 183.68 14.22Q183.9 13.6 184.24 13.04Q184.58 12.47 184.96 11.96L184.96 11.96Q185.04 11.86 185.22 11.61Q185.41 11.37 185.63 11.07Q185.86 10.76 186.08 10.46Q186.31 10.17 186.49 9.95L186.49 9.95L188.2 9.95L188.2 10.01Q187.76 10.53 187.28 11.12Q186.79 11.7 186.32 12.31L186.32 12.31Q185.98 12.73 185.77 13.03Q185.56 13.32 185.46 13.47L185.46 13.47L185.72 13.47Q185.93 13.26 186.25 13.11Q186.57 12.96 187.06 12.96L187.06 12.96Q187.82 12.96 188.39 13.3Q188.96 13.63 189.27 14.23Q189.59 14.84 189.59 15.62L189.59 15.62Q189.59 16.44 189.23 17.11Q188.86 17.77 188.19 18.16Q187.51 18.55 186.54 18.55ZM186.58 17.44L186.58 17.44Q187.34 17.44 187.76 16.96Q188.18 16.48 188.18 15.68L188.18 15.68Q188.18 14.84 187.74 14.39Q187.3 13.94 186.57 13.94L186.57 13.94Q185.76 13.94 185.33 14.43Q184.89 14.92 184.89 15.67L184.89 15.67Q184.89 16.14 185.08 16.54Q185.27 16.94 185.64 17.19Q186.01 17.44 186.58 17.44Z" fill="#e6edf3" fill-opacity=".86"/>
</svg>
